<svg height="1022.667" viewBox="0 0 767 767" width="1022.667" xmlns="http://www.w3.org/2000/svg"><path d="m606.5 29.2c-.3.7-.4 20.6-.3 44.3l.3 43h87l.3-44.3.2-44.2h-43.5c-33.9 0-43.7.3-44 1.2zm-265.5 131.8v44h88v-88h-88zm176.7-43.3c-.4.3-.7 20.1-.7 44v43.3h-87v88h87v-88h89v88h88v-88.1l-31.7.1c-17.5 0-37.3.1-44 0h-12.3v-88h-43.8c-24.1 0-44.2.3-44.5.7zm-441.7 352.8v265.5l264.8-.2 264.7-.3.3-132.3.2-132.2h-42.9c-23.6 0-43.6-.3-44.5-.6-1.4-.5-1.6-5.4-1.6-44.5v-43.9h-87.9c-75.6 0-88-.2-88.4-1.4-.3-.8-.6-20.5-.6-43.8v-42.3l-43.6-.3-43.5-.2-.2-44.3-.3-44.2-88.2-.3-88.3-.2zm98 12.5v14h-28v-13.3c0-7.4.3-13.7.7-14 .3-.4 6.6-.7 14-.7h13.3zm33 0v14h-28v-13.3c0-7.4.3-13.7.7-14 .3-.4 6.6-.7 14-.7h13.3zm33.8.2.3 13.8h-28.1v-28.1l13.8.3 13.7.3zm133.2-.2v14h-28v-13.3c0-7.4.3-13.7.7-14 .3-.4 6.6-.7 14-.7h13.3zm33 0v14h-28v-13.3c0-7.4.3-13.7.7-14 .3-.4 6.6-.7 14-.7h13.3zm33.8.2.3 13.8h-28.1v-28.1l13.8.3 13.7.3zm-299.8 33.8v14h-28v-28h28zm133 0v14h-28v-28h28zm67 0v14h-28v-28h28zm133 0v14h-28v-28h28zm-200 33v14h-28v-28h28zm200 0v14h-28v-28h28zm-233.2 33.2.3 13.8h-28.1v-28.1l13.8.3 13.7.3zm200 0 .3 13.8h-28.1v-28.1l13.8.3 13.7.3zm-233.8 33.8v14.1l-13.7-.3-13.8-.3-.3-13.8-.3-13.7h28.1zm200 0v14.1l-13.7-.3-13.8-.3-.3-13.8-.3-13.7h28.1zm-233 33v14h-28v-28h28zm200 0v14h-28v-28h28zm-233.2 33.2.3 13.8h-28.1v-28.1l13.8.3 13.7.3zm33.2-.2v14h-28v-13.3c0-7.4.3-13.7.7-14 .3-.4 6.6-.7 14-.7h13.3zm33 0v14h-28v-13.3c0-7.4.3-13.7.7-14 .3-.4 6.6-.7 14-.7h13.3zm33.8.2.3 13.8h-28.1v-28.1l13.8.3 13.7.3zm33.2-.2v14h-28v-13.3c0-7.4.3-13.7.7-14 .3-.4 6.6-.7 14-.7h13.3zm66.8.2.3 13.8h-28.1v-28.1l13.8.3 13.7.3zm33.2-.2v14h-28v-13.3c0-7.4.3-13.7.7-14 .3-.4 6.6-.7 14-.7h13.3zm33 0v14h-28v-13.3c0-7.4.3-13.7.7-14 .3-.4 6.6-.7 14-.7h13.3zm33.8.2.3 13.8h-28.1v-28.1l13.8.3 13.7.3zm33.2-.2v14h-28v-13.3c0-7.4.3-13.7.7-14 .3-.4 6.6-.7 14-.7h13.3zm132-257v44h88v-88h-88z"/></svg>